PathFileType	4	(X/Y/Z)	D:\TRACE\v60_Jaco2_6-2-23\JustBodyDRS_Motion1_4-v60.trc
DataRate	CameraRate	NumFrames	NumMarkers	Units	OrigDataRate	OrigDataStartFrame	OrigNumFrames
100.00	100.00	      20	9	mm	100.00	5218	      6956
Frame#	Time	front left toe			Front right toe			aft left toe			aft right toe			Arm			FL body			FR body			AL Body			AR Body			
		X1	Y1	Z1	X2	Y2	Z2	X3	Y3	Z3	X4	Y4	Z4	X5	Y5	Z5	X6	Y6	Z6	X7	Y7	Z7	X8	Y8	Z8	X9	Y9	Z9	

5218	52.170	-189.67833	12.17626	-221.86447	159.21318	5.54651	-288.07315	-98.58135	28.80627	398.37350	278.72235	31.33834	335.74448	-140.43729	1201.45813	-369.22586	-117.59556	569.11377	-366.77899	39.64100	567.92041	-396.78156	55.95476	568.26056	562.78589	210.83749	561.33331	535.75385	
5219	52.180	-187.48747	16.17622	-218.83885	158.97002	5.79474	-288.01096	-99.40018	28.97855	398.30557	276.07236	36.57528	339.24741	-142.74107	1202.01184	-369.50583	-119.51404	569.53967	-366.68097	38.64381	568.68573	-396.74677	54.94228	569.04681	562.88843	210.06430	562.27136	535.74084	
5220	52.190	-184.28290	23.30727	-216.24042	158.53761	5.75254	-288.19479	-99.68177	28.83274	398.10413	272.88544	45.31096	341.31042	-144.46838	1201.87366	-369.66183	-120.99140	569.65918	-366.37341	36.14258	568.78107	-395.84930	53.95722	569.54083	563.01300	210.18340	563.09692	535.71912	
5221	52.200	-183.18706	32.94154	-216.11516	158.32906	5.49160	-288.16803	-99.99168	28.94335	398.18539	271.00836	56.58640	341.95026	-146.28656	1201.54724	-369.90826	-122.03316	569.21814	-366.22379	34.94427	568.52911	-395.81396	53.02309	570.07562	563.26617	208.16617	563.71106	535.80573	
5222	52.210	-184.06435	43.99869	-215.28099	158.19588	5.32630	-288.09229	-100.34903	28.85253	398.20251	269.68268	68.83517	341.09393	-147.97348	1200.71387	-370.06049	-123.02422	568.66669	-366.03320	34.30094	568.24451	-395.99591	51.73068	570.58978	563.49695	206.98560	564.95776	537.18463	
5223	52.220	-186.82675	55.54315	-216.18341	157.98476	5.32166	-287.77991	-100.72354	28.72650	398.26767	269.87372	81.97689	339.22781	-149.99023	1199.88611	-369.89145	-123.79060	568.20178	-365.94293	33.31431	567.90509	-395.81531	50.28756	570.58960	563.60962	205.57161	564.78839	536.39850	
5224	52.230	-190.30797	67.84039	-216.36688	157.62990	5.15563	-287.77582	-100.89296	28.28047	398.24405	271.38229	95.77571	338.19153	-152.42322	1199.08215	-370.20291	-124.96604	567.29492	-366.17950	33.20335	567.57770	-395.97964	48.75603	570.35675	563.80066	202.48421	564.06055	536.01001	
5225	52.240	-193.65289	80.35413	-216.60864	157.48167	5.00466	-287.75357	-101.58039	27.90928	398.22784	271.94925	108.59743	337.50879	-154.68987	1198.30310	-370.29929	-125.39474	566.82025	-365.97784	33.30539	567.19427	-395.83554	47.02281	569.95319	563.92603	202.16190	564.92285	538.34399	
5226	52.250	-196.37267	91.98850	-216.37437	157.31694	4.90745	-287.79419	-101.65570	27.63285	398.27847	271.31784	120.69289	337.61694	-156.70265	1197.02917	-370.47403	-126.16135	565.53247	-365.97571	32.08456	566.41321	-395.52298	45.65317	569.94238	563.98120	200.51881	564.96130	538.37585	
5227	52.260	-198.53845	103.15861	-216.32146	157.18294	4.75474	-287.79330	-101.80725	27.65079	398.29724	269.67578	132.10918	337.67493	-158.03516	1196.15100	-370.46713	-126.85049	564.94330	-365.95380	31.01138	565.78735	-395.63983	43.90622	570.11951	564.41248	199.14754	565.44800	538.61224	
5228	52.270	-200.65051	112.92747	-216.10298	157.06253	4.70276	-287.81061	-101.99998	27.66808	398.31012	267.34015	142.92119	338.48822	-159.61229	1195.58191	-371.24203	-127.98904	564.11359	-365.78677	29.89203	565.26727	-395.22949	42.74330	570.36060	564.47522	197.89401	566.43060	539.65491	
5229	52.280	-202.84081	121.62623	-215.86510	157.03882	4.73887	-287.81061	-101.99300	27.50179	398.29834	264.80939	152.02907	338.83029	-160.91571	1194.93494	-371.75836	-128.54930	563.23712	-365.49393	28.53116	564.55469	-394.30164	41.49183	570.72736	564.77087	196.69673	566.81891	539.60443	
5230	52.290	-205.31148	128.67929	-215.48563	156.98605	4.75078	-287.82767	-102.16178	27.45442	398.26068	262.05225	159.54149	338.76303	-162.72289	1194.00769	-372.46671	-129.52419	562.49213	-365.31030	28.01930	563.97565	-394.44955	40.17443	571.13208	564.79419	195.36739	566.95221	539.16937	
5231	52.300	-208.60500	133.38959	-215.05865	156.90845	4.76181	-287.74252	-102.49278	27.46583	398.23334	261.02628	164.77223	339.06454	-164.39317	1193.20190	-372.86642	-130.00040	561.82129	-365.04678	27.26738	563.50519	-394.12653	38.76794	571.59186	565.08264	193.76013	567.44232	539.40326	
5232	52.310	-211.72777	135.32756	-213.86577	156.84235	4.76432	-287.67181	-102.57035	27.50763	398.26505	259.29874	166.79535	339.59567	-166.51773	1192.44226	-373.53290	-130.69797	561.11542	-365.02411	27.32492	563.34735	-394.19345	37.29115	571.94812	565.64105	192.16446	568.20331	540.49005	
5233	52.320	-215.24370	134.46556	-212.69936	156.81796	4.77214	-287.58755	-102.65617	27.59730	398.18988	258.18585	165.63860	340.05258	-168.10960	1191.61279	-373.62686	-131.34854	560.99603	-364.97455	27.32178	563.20691	-394.05313	35.83280	572.38806	565.88092	190.68573	568.59979	540.14362	
5234	52.330	-218.54141	131.18353	-211.50873	156.72136	4.84703	-287.53891	-102.68954	27.52422	398.14697	256.46896	162.09956	340.99005	-169.44432	1191.08374	-373.87778	-132.40979	560.80530	-365.10278	26.06204	562.91016	-393.75842	34.44174	572.67413	566.15222	189.58492	569.31683	541.00372	
5235	52.340	-220.87619	126.71591	-210.67181	156.67982	4.90679	-287.52478	-102.81733	27.45744	398.07941	254.31386	157.57384	341.85980	-170.69655	1190.94019	-374.31305	-133.12419	560.46979	-365.11346	25.39221	562.84021	-393.62637	33.03297	572.80121	566.23029	187.80911	569.40155	540.47418	
5236	52.350	-222.82083	121.02208	-210.19948	156.59485	5.02140	-287.45764	-102.80910	27.36351	398.06549	251.89137	152.02716	342.79944	-172.03752	1190.92151	-374.37344	-133.80835	559.97095	-365.00171	24.75854	562.68439	-393.37112	31.34690	572.95679	566.29242	186.34012	569.65973	540.59711	
5237	52.360	-224.72159	115.05910	-209.98897	156.52090	5.02708	-287.46429	-102.96754	27.23154	397.99313	248.52492	145.36333	343.26077	-173.21664	1190.61035	-374.22290	-134.65685	559.57117	-364.89526	23.93696	562.31274	-393.20966	29.87024	573.06775	566.18854	184.80954	569.91821	540.88477	
